<svg xmlns="http://www.w3.org/2000/svg" width="1600" height="900" viewBox="0 0 1600 900"><rect width="1600" height="900" fill="#08090a"/><text x="96" y="130" font-family="'SF Mono', Menlo, monospace" font-size="30" letter-spacing="3" fill="#c5f24e">DAY 25 / 100</text><text x="1504" y="130" text-anchor="end" font-family="'SF Mono', Menlo, monospace" font-size="26" letter-spacing="2" fill="#8b9299">M3 PROMPTING</text><text x="96" y="250" font-family="Inter, 'Helvetica Neue', Helvetica, Arial, sans-serif" font-weight="700" font-size="84" fill="#f2f4f5">ALL CAPS instructions</text><text x="96" y="320" font-family="'SF Mono', Menlo, monospace" font-size="32" fill="#8b9299">Caps vs normal</text><rect x="96" y="390" width="660" height="400" rx="18" fill="#111316" stroke="#262a2e" stroke-width="2"/><g transform="translate(136,542.0) scale(4.0)" fill="none" stroke="#c5f24e" stroke-width="1.25" stroke-linecap="round" stroke-linejoin="round">
  <path d="M15 11h4.5a1 1 0 0 1 0 5h-4a.5.5 0 0 1-.5-.5v-9a.5.5 0 0 1 .5-.5h3a1 1 0 0 1 0 5" />
  <path d="m2 16 4.039-9.69a.5.5 0 0 1 .923 0L11 16" />
  <path d="M3.304 13h6.392" />
</g><text x="268" y="452" font-family="'SF Mono', Menlo, monospace" font-size="30" letter-spacing="4" fill="#c5f24e">WITH</text><circle cx="279" cy="744" r="9.5" fill="none" stroke="#5a6068" stroke-width="3"/><circle cx="313" cy="744" r="9.5" fill="none" stroke="#5a6068" stroke-width="3"/><circle cx="347" cy="744" r="9.5" fill="none" stroke="#5a6068" stroke-width="3"/><circle cx="381" cy="744" r="9.5" fill="none" stroke="#5a6068" stroke-width="3"/><circle cx="415" cy="744" r="9.5" fill="none" stroke="#5a6068" stroke-width="3"/><circle cx="449" cy="744" r="9.5" fill="none" stroke="#5a6068" stroke-width="3"/><circle cx="483" cy="744" r="9.5" fill="none" stroke="#5a6068" stroke-width="3"/><circle cx="517" cy="744" r="9.5" fill="none" stroke="#5a6068" stroke-width="3"/><circle cx="551" cy="744" r="9.5" fill="none" stroke="#5a6068" stroke-width="3"/><rect x="844" y="390" width="660" height="400" rx="18" fill="#111316" stroke="#262a2e" stroke-width="2"/><g transform="translate(884,542.0) scale(4.0)" fill="none" stroke="#8b9299" stroke-width="1.25" stroke-linecap="round" stroke-linejoin="round">
  <path d="M12 4v16" />
  <path d="M4 7V5a1 1 0 0 1 1-1h14a1 1 0 0 1 1 1v2" />
  <path d="M9 20h6" />
</g><text x="1016" y="452" font-family="'SF Mono', Menlo, monospace" font-size="30" letter-spacing="4" fill="#8b9299">WITHOUT</text><circle cx="1027" cy="744" r="9.5" fill="none" stroke="#5a6068" stroke-width="3"/><circle cx="1061" cy="744" r="9.5" fill="none" stroke="#5a6068" stroke-width="3"/><circle cx="1095" cy="744" r="9.5" fill="none" stroke="#5a6068" stroke-width="3"/><circle cx="1129" cy="744" r="9.5" fill="none" stroke="#5a6068" stroke-width="3"/><circle cx="1163" cy="744" r="9.5" fill="none" stroke="#5a6068" stroke-width="3"/><circle cx="1197" cy="744" r="9.5" fill="none" stroke="#5a6068" stroke-width="3"/><circle cx="1231" cy="744" r="9.5" fill="none" stroke="#5a6068" stroke-width="3"/><circle cx="1265" cy="744" r="9.5" fill="none" stroke="#5a6068" stroke-width="3"/><circle cx="1299" cy="744" r="9.5" fill="none" stroke="#5a6068" stroke-width="3"/><text x="800.0" y="602.0" text-anchor="middle" font-family="'SF Mono', Menlo, monospace" font-size="30" fill="#8b9299">vs</text><text x="96" y="848" font-family="'SF Mono', Menlo, monospace" font-size="24" fill="#8b9299">3 tasks · 9 runs a side</text><text x="1504" y="848" text-anchor="end" font-family="'SF Mono', Menlo, monospace" font-size="24" fill="#8b9299">github.com/sebuzdugan/100-tricks-lab</text></svg>