<svg xmlns="http://www.w3.org/2000/svg" width="1600" height="900" viewBox="0 0 1600 900"><rect width="1600" height="900" fill="#08090a"/><text x="96" y="130" font-family="'SF Mono', Menlo, monospace" font-size="30" letter-spacing="3" fill="#c5f24e">DAY 28 / 100</text><text x="1504" y="130" text-anchor="end" font-family="'SF Mono', Menlo, monospace" font-size="26" letter-spacing="2" fill="#8b9299">M3 PROMPTING</text><text x="96" y="250" font-family="Inter, 'Helvetica Neue', Helvetica, Arial, sans-serif" font-weight="700" font-size="84" fill="#f2f4f5">Full stack trace vs</text><text x="96" y="348" font-family="Inter, 'Helvetica Neue', Helvetica, Arial, sans-serif" font-weight="700" font-size="84" fill="#f2f4f5">description</text><text x="96" y="418" font-family="'SF Mono', Menlo, monospace" font-size="32" fill="#8b9299">Trace vs words</text><rect x="96" y="488" width="660" height="302" rx="18" fill="#111316" stroke="#262a2e" stroke-width="2"/><g transform="translate(136,591.0) scale(4.0)" fill="none" stroke="#c5f24e" stroke-width="1.25" stroke-linecap="round" stroke-linejoin="round">
  <path d="M6 22a2 2 0 0 1-2-2V4a2 2 0 0 1 2-2h8a2.4 2.4 0 0 1 1.704.706l3.588 3.588A2.4 2.4 0 0 1 20 8v12a2 2 0 0 1-2 2z" />
  <path d="M12 9v4" />
  <path d="M12 17h.01" />
</g><text x="268" y="550" font-family="'SF Mono', Menlo, monospace" font-size="30" letter-spacing="4" fill="#c5f24e">WITH</text><circle cx="279" cy="744" r="9.5" fill="none" stroke="#5a6068" stroke-width="3"/><circle cx="313" cy="744" r="9.5" fill="none" stroke="#5a6068" stroke-width="3"/><circle cx="347" cy="744" r="9.5" fill="none" stroke="#5a6068" stroke-width="3"/><circle cx="381" cy="744" r="9.5" fill="none" stroke="#5a6068" stroke-width="3"/><circle cx="415" cy="744" r="9.5" fill="none" stroke="#5a6068" stroke-width="3"/><circle cx="449" cy="744" r="9.5" fill="none" stroke="#5a6068" stroke-width="3"/><rect x="844" y="488" width="660" height="302" rx="18" fill="#111316" stroke="#262a2e" stroke-width="2"/><g transform="translate(884,591.0) scale(4.0)" fill="none" stroke="#8b9299" stroke-width="1.25" stroke-linecap="round" stroke-linejoin="round">
  <path d="M8.8 20v-4.1l1.9.2a2.3 2.3 0 0 0 2.164-2.1V8.3A5.37 5.37 0 0 0 2 8.25c0 2.8.656 3.054 1 4.55a5.77 5.77 0 0 1 .029 2.758L2 20" />
  <path d="M19.8 17.8a7.5 7.5 0 0 0 .003-10.603" />
  <path d="M17 15a3.5 3.5 0 0 0-.025-4.975" />
</g><text x="1016" y="550" font-family="'SF Mono', Menlo, monospace" font-size="30" letter-spacing="4" fill="#8b9299">WITHOUT</text><circle cx="1027" cy="744" r="9.5" fill="none" stroke="#5a6068" stroke-width="3"/><circle cx="1061" cy="744" r="9.5" fill="none" stroke="#5a6068" stroke-width="3"/><circle cx="1095" cy="744" r="9.5" fill="none" stroke="#5a6068" stroke-width="3"/><circle cx="1129" cy="744" r="9.5" fill="none" stroke="#5a6068" stroke-width="3"/><circle cx="1163" cy="744" r="9.5" fill="none" stroke="#5a6068" stroke-width="3"/><circle cx="1197" cy="744" r="9.5" fill="none" stroke="#5a6068" stroke-width="3"/><text x="800.0" y="651.0" text-anchor="middle" font-family="'SF Mono', Menlo, monospace" font-size="30" fill="#8b9299">vs</text><text x="96" y="848" font-family="'SF Mono', Menlo, monospace" font-size="24" fill="#8b9299">1 task (t2) · 6 runs a side</text><text x="1504" y="848" text-anchor="end" font-family="'SF Mono', Menlo, monospace" font-size="24" fill="#8b9299">github.com/sebuzdugan/100-tricks-lab</text></svg>