<svg xmlns="http://www.w3.org/2000/svg" width="1600" height="900" viewBox="0 0 1600 900"><rect width="1600" height="900" fill="#08090a"/><text x="96" y="130" font-family="'SF Mono', Menlo, monospace" font-size="30" letter-spacing="3" fill="#c5f24e">DAY 66 / 100</text><text x="1504" y="130" text-anchor="end" font-family="'SF Mono', Menlo, monospace" font-size="26" letter-spacing="2" fill="#8b9299">M7 SKILLS AND MCP</text><text x="96" y="250" font-family="Inter, 'Helvetica Neue', Helvetica, Arial, sans-serif" font-weight="700" font-size="72" fill="#f2f4f5">Web search on vs off while</text><text x="96" y="336" font-family="Inter, 'Helvetica Neue', Helvetica, Arial, sans-serif" font-weight="700" font-size="72" fill="#f2f4f5">fixing</text><text x="96" y="406" font-family="'SF Mono', Menlo, monospace" font-size="32" fill="#8b9299">Web on vs off</text><rect x="96" y="476" width="660" height="314" rx="18" fill="#111316" stroke="#262a2e" stroke-width="2"/><g transform="translate(136,585.0) scale(4.0)" fill="none" stroke="#c5f24e" stroke-width="1.25" stroke-linecap="round" stroke-linejoin="round">
  <circle cx="12" cy="12" r="10" />
  <path d="M12 2a14.5 14.5 0 0 0 0 20 14.5 14.5 0 0 0 0-20" />
  <path d="M2 12h20" />
</g><text x="268" y="538" font-family="'SF Mono', Menlo, monospace" font-size="30" letter-spacing="4" fill="#c5f24e">WITH</text><circle cx="279" cy="744" r="9.5" fill="none" stroke="#5a6068" stroke-width="3"/><circle cx="313" cy="744" r="9.5" fill="none" stroke="#5a6068" stroke-width="3"/><circle cx="347" cy="744" r="9.5" fill="none" stroke="#5a6068" stroke-width="3"/><circle cx="381" cy="744" r="9.5" fill="none" stroke="#5a6068" stroke-width="3"/><circle cx="415" cy="744" r="9.5" fill="none" stroke="#5a6068" stroke-width="3"/><circle cx="449" cy="744" r="9.5" fill="none" stroke="#5a6068" stroke-width="3"/><circle cx="483" cy="744" r="9.5" fill="none" stroke="#5a6068" stroke-width="3"/><circle cx="517" cy="744" r="9.5" fill="none" stroke="#5a6068" stroke-width="3"/><circle cx="551" cy="744" r="9.5" fill="none" stroke="#5a6068" stroke-width="3"/><rect x="844" y="476" width="660" height="314" rx="18" fill="#111316" stroke="#262a2e" stroke-width="2"/><g transform="translate(884,585.0) scale(4.0)" fill="none" stroke="#8b9299" stroke-width="1.25" stroke-linecap="round" stroke-linejoin="round">
  <path d="M12 20h.01" />
  <path d="M8.5 16.429a5 5 0 0 1 7 0" />
  <path d="M5 12.859a10 10 0 0 1 5.17-2.69" />
  <path d="M19 12.859a10 10 0 0 0-2.007-1.523" />
  <path d="M2 8.82a15 15 0 0 1 4.177-2.643" />
  <path d="M22 8.82a15 15 0 0 0-11.288-3.764" />
  <path d="m2 2 20 20" />
</g><text x="1016" y="538" font-family="'SF Mono', Menlo, monospace" font-size="30" letter-spacing="4" fill="#8b9299">WITHOUT</text><circle cx="1027" cy="744" r="9.5" fill="none" stroke="#5a6068" stroke-width="3"/><circle cx="1061" cy="744" r="9.5" fill="none" stroke="#5a6068" stroke-width="3"/><circle cx="1095" cy="744" r="9.5" fill="none" stroke="#5a6068" stroke-width="3"/><circle cx="1129" cy="744" r="9.5" fill="none" stroke="#5a6068" stroke-width="3"/><circle cx="1163" cy="744" r="9.5" fill="none" stroke="#5a6068" stroke-width="3"/><circle cx="1197" cy="744" r="9.5" fill="none" stroke="#5a6068" stroke-width="3"/><circle cx="1231" cy="744" r="9.5" fill="none" stroke="#5a6068" stroke-width="3"/><circle cx="1265" cy="744" r="9.5" fill="none" stroke="#5a6068" stroke-width="3"/><circle cx="1299" cy="744" r="9.5" fill="none" stroke="#5a6068" stroke-width="3"/><text x="800.0" y="645.0" text-anchor="middle" font-family="'SF Mono', Menlo, monospace" font-size="30" fill="#8b9299">vs</text><text x="96" y="848" font-family="'SF Mono', Menlo, monospace" font-size="24" fill="#8b9299">3 tasks · 9 runs a side</text><text x="1504" y="848" text-anchor="end" font-family="'SF Mono', Menlo, monospace" font-size="24" fill="#8b9299">github.com/sebuzdugan/100-tricks-lab</text></svg>