<svg xmlns="http://www.w3.org/2000/svg" width="1600" height="900" viewBox="0 0 1600 900"><rect width="1600" height="900" fill="#08090a"/><text x="96" y="130" font-family="'SF Mono', Menlo, monospace" font-size="30" letter-spacing="3" fill="#c5f24e">DAY 97 / 100</text><text x="1504" y="130" text-anchor="end" font-family="'SF Mono', Menlo, monospace" font-size="26" letter-spacing="2" fill="#8b9299">M10 LONG RUNS</text><text x="96" y="250" font-family="Inter, 'Helvetica Neue', Helvetica, Arial, sans-serif" font-weight="700" font-size="72" fill="#f2f4f5">Auto-accept with checkpoints</text><text x="96" y="320" font-family="'SF Mono', Menlo, monospace" font-size="32" fill="#8b9299">Accept all, rewind</text><rect x="96" y="390" width="660" height="400" rx="18" fill="#111316" stroke="#262a2e" stroke-width="2"/><g transform="translate(136,542.0) scale(4.0)" fill="none" stroke="#c5f24e" stroke-width="1.25" stroke-linecap="round" stroke-linejoin="round">
  <path d="M9 14 4 9l5-5" />
  <path d="M4 9h10.5a5.5 5.5 0 0 1 5.5 5.5a5.5 5.5 0 0 1-5.5 5.5H11" />
</g><text x="268" y="452" font-family="'SF Mono', Menlo, monospace" font-size="30" letter-spacing="4" fill="#c5f24e">WITH</text><circle cx="279" cy="744" r="9.5" fill="none" stroke="#5a6068" stroke-width="3"/><circle cx="313" cy="744" r="9.5" fill="none" stroke="#5a6068" stroke-width="3"/><circle cx="347" cy="744" r="9.5" fill="none" stroke="#5a6068" stroke-width="3"/><rect x="844" y="390" width="660" height="400" rx="18" fill="#111316" stroke="#262a2e" stroke-width="2"/><g transform="translate(884,542.0) scale(4.0)" fill="none" stroke="#8b9299" stroke-width="1.25" stroke-linecap="round" stroke-linejoin="round">
  <path d="M18 11V6a2 2 0 0 0-2-2a2 2 0 0 0-2 2" />
  <path d="M14 10V4a2 2 0 0 0-2-2a2 2 0 0 0-2 2v2" />
  <path d="M10 10.5V6a2 2 0 0 0-2-2a2 2 0 0 0-2 2v8" />
  <path d="M18 8a2 2 0 1 1 4 0v6a8 8 0 0 1-8 8h-2c-2.8 0-4.5-.86-5.99-2.34l-3.6-3.6a2 2 0 0 1 2.83-2.82L7 15" />
</g><text x="1016" y="452" font-family="'SF Mono', Menlo, monospace" font-size="30" letter-spacing="4" fill="#8b9299">WITHOUT</text><circle cx="1027" cy="744" r="9.5" fill="none" stroke="#5a6068" stroke-width="3"/><circle cx="1061" cy="744" r="9.5" fill="none" stroke="#5a6068" stroke-width="3"/><circle cx="1095" cy="744" r="9.5" fill="none" stroke="#5a6068" stroke-width="3"/><text x="800.0" y="602.0" text-anchor="middle" font-family="'SF Mono', Menlo, monospace" font-size="30" fill="#8b9299">vs</text><text x="96" y="848" font-family="'SF Mono', Menlo, monospace" font-size="24" fill="#8b9299">3 tasks · 3 runs a side · run by hand</text><text x="1504" y="848" text-anchor="end" font-family="'SF Mono', Menlo, monospace" font-size="24" fill="#8b9299">github.com/sebuzdugan/100-tricks-lab</text></svg>